<svg width="720" height="130" viewBox="0 0 720 130" xmlns="http://www.w3.org/2000/svg">
 <g>
  <title>Layer 1</title>
  <g id="Layer_1"/>
  <g id="Layer_2">
   <path id="svg_1" d="m211.631012,93.924011l-6.89502,-12.276001h-47.054993l-6.938004,12.276001h-8.785995l32.988998,-58.167023h12.406998l32.886993,58.167023h-8.608978l0,0zm465.13797,-58.34201c9.949036,0 16.960022,0.320007 21.03302,0.959991c4.072998,0.640015 7.054993,1.877014 8.930969,3.723999c1.193054,1.164001 2.080017,2.559998 2.676025,4.160004c0.596008,1.600006 1.075989,3.855011 1.411011,6.748993c0.421997,3.665009 0.640015,8.306 0.640015,13.904999c0,7.156006 -0.334045,12.582001 -1.003052,16.247009c-0.668945,3.679993 -1.817993,6.38501 -3.475952,8.087006c-1.702026,1.817993 -4.509033,3.054993 -8.407043,3.723999c-3.912964,0.669006 -10.312988,1.003998 -19.199951,1.003998c-4.378052,0 -9.222046,-0.072998 -14.559998,-0.218994c-5.322998,-0.131012 -8.829041,-0.276001 -10.502014,-0.42099c-2.893982,-0.276001 -5.177002,-0.757019 -6.86499,-1.411011c-1.673035,-0.654999 -3.157043,-1.673004 -4.466003,-3.069c-1.731018,-1.817993 -2.894043,-4.363007 -3.476013,-7.665009c-0.582031,-3.302002 -0.872009,-8.872009 -0.872009,-16.712006c0,-9.250977 0.640015,-15.839996 1.919983,-19.723999c1.527039,-4.610992 5.046997,-7.315979 10.531006,-8.145996c5.015991,-0.770996 13.583008,-1.162994 25.684998,-1.192993l0,0zm-4.466003,6.981995c-8.130981,0 -14.094971,0.320007 -17.904968,0.973999c-2.210999,0.377991 -3.811035,1.003998 -4.799988,1.904999c-0.975037,0.888 -1.65802,2.356995 -2.06604,4.364014c-0.654968,3.243988 -0.973999,7.985992 -0.973999,14.23999c0,6.429016 0.174011,11.113007 0.538025,14.050995c0.348999,2.938019 0.989014,4.916016 1.934998,5.906006c0.740967,0.82901 1.804016,1.424988 3.200012,1.787994c1.381958,0.378021 3.592957,0.654999 6.604004,0.859009c4.974976,0.334991 10.748962,0.509003 17.337952,0.509003c9.382019,0 16.189026,-0.377991 20.45105,-1.149017c3.359985,-0.566986 5.352966,-2.54599 5.977966,-5.934998c0.655029,-3.635986 0.975037,-8.582001 0.975037,-14.835999c0,-7.635986 -0.291016,-13.03299 -0.859009,-16.160004c-0.567017,-3.17099 -2.763,-5.061981 -6.604004,-5.65799c-2.23999,-0.348999 -4.770996,-0.566986 -7.578003,-0.669006c-2.822021,-0.10199 -8.231995,-0.160004 -16.233032,-0.188995l0,0zm-127.09198,-6.807007h66.093994v6.822021h-29.10498v51.345001h-7.752991v-51.345001h-29.236023v-6.822021l0,0zm-90.090027,58.167023v-58.167023h36.815002c9.65802,0.20401 15.491028,0.421997 17.469055,0.684021c1.847961,0.246979 3.54895,0.915985 5.090942,1.979004c1.55603,1.061981 2.705017,2.399994 3.476013,3.984985c1.251038,2.559998 1.877014,6.34201 1.877014,11.330994c0,3.927002 -0.335022,7.011017 -1.004028,9.265015c-0.668945,2.268982 -1.758972,4.044006 -3.301941,5.352997c-1.55603,1.337982 -3.186035,2.23999 -4.873047,2.704987c-1.701965,0.466003 -4.320007,0.757019 -7.868958,0.873016c-1.280029,0.028992 -4.902039,0.057983 -10.866028,0.087006h-29.062012v21.904999h-7.752014l0,0zm7.753052,-28.72702h29.061951c7.098022,-0.028992 11.52002,-0.145996 13.251038,-0.334991c1.731018,-0.203003 3.200012,-0.785004 4.393005,-1.759003c0.872986,-0.727997 1.482971,-1.76001 1.833008,-3.083984c0.334961,-1.324005 0.508972,-3.331024 0.508972,-6.022003c0,-2.981995 -0.145996,-5.106018 -0.452026,-6.371002c-0.290955,-1.266022 -0.886963,-2.240021 -1.759949,-2.924011c-1.13501,-0.843994 -2.575012,-1.381989 -4.291016,-1.584991c-1.716003,-0.218994 -6.210999,-0.393005 -13.484009,-0.537994h-29.062012v22.617981l0.001038,0zm-74.192017,-29.61499c9.949005,0 16.959991,0.320007 21.031982,0.959991c4.072998,0.640015 7.055023,1.877014 8.931,3.723999c1.193024,1.164001 2.080017,2.559998 2.676025,4.160004c0.595978,1.600006 1.075989,3.855011 1.41098,6.748993c0.421997,3.665009 0.640015,8.306 0.640015,13.904999c0,7.156006 -0.335022,12.582001 -1.003021,16.247009c-0.668976,3.679993 -1.817993,6.38501 -3.475983,8.087006c-1.701996,1.817993 -4.509003,3.054993 -8.407013,3.723999c-3.912994,0.669006 -10.312988,1.003998 -19.199982,1.003998c-4.378021,0 -9.222015,-0.072998 -14.559998,-0.218994c-5.324005,-0.131012 -8.82901,-0.276001 -10.502014,-0.42099c-2.894989,-0.276001 -5.178009,-0.757019 -6.86499,-1.411011c-1.673004,-0.654999 -3.157013,-1.673004 -4.466003,-3.069c-1.730011,-1.817993 -2.894012,-4.363007 -3.476013,-7.665009c-0.582001,-3.302002 -0.871979,-8.872009 -0.871979,-16.712006c0,-9.250977 0.639984,-15.839996 1.919983,-19.723999c1.528015,-4.610992 5.048004,-7.315979 10.531006,-8.145996c5.018005,-0.770996 13.584991,-1.162994 25.686005,-1.192993l0,0zm-4.464996,6.981995c-8.131012,0 -14.095001,0.320007 -17.906006,0.973999c-2.210999,0.377991 -3.811005,1.003998 -4.800018,1.904999c-0.973999,0.888 -1.65799,2.356995 -2.064972,4.364014c-0.654022,3.243988 -0.97403,7.985992 -0.97403,14.23999c0,6.429016 0.174011,11.113007 0.538025,14.050995c0.348999,2.938019 0.988983,4.916016 1.934998,5.906006c0.742004,0.82901 1.803986,1.424988 3.199982,1.787994c1.382019,0.378021 3.593018,0.654999 6.604004,0.859009c4.975006,0.334991 10.748993,0.509003 17.338013,0.509003c9.380981,0 16.188995,-0.377991 20.449982,-1.149017c3.360016,-0.566986 5.353027,-2.54599 5.978027,-5.934998c0.654999,-3.635986 0.974976,-8.582001 0.974976,-14.835999c0,-7.635986 -0.290985,-13.03299 -0.858002,-16.160004c-0.566986,-3.17099 -2.763,-5.061981 -6.603973,-5.65799c-2.240021,-0.348999 -4.77002,-0.566986 -7.578003,-0.669006c-2.822021,-0.10199 -8.233002,-0.160004 -16.233002,-0.188995l0,0zm-136.301025,51.360016v-58.167023h40.146027c8.886993,0 15.141998,0.364014 18.748993,1.106018c4.333984,0.886993 7.651001,3.199982 9.919983,6.953003c1.164001,1.904999 1.993011,4.450989 2.473022,7.651001c0.47998,3.186005 0.72699,7.635986 0.72699,13.352997c0,7.126984 -0.640015,12.785004 -1.920013,16.959991c-1.992981,6.415009 -6.224976,10.182007 -12.697998,11.286987c-3.345001,0.567017 -8.901001,0.858002 -16.653992,0.858002h-40.743011l0,-0.000977zm7.753021,-6.822021h32.639984c5.600006,0 9.076019,-0.028992 10.414001,-0.10199c1.352997,-0.072998 2.837006,-0.306 4.464996,-0.713013c3.141998,-0.72699 5.411011,-2.792999 6.764008,-6.166992c1.368011,-3.389008 2.050995,-8.596008 2.050995,-15.635986c0,-9.149017 -1.177979,-15.171021 -3.533997,-18.065002c-0.888,-1.119995 -2.050995,-1.949005 -3.490997,-2.502014c-1.454987,-0.552979 -3.432983,-0.945984 -5.934998,-1.164001c-1.468994,-0.115997 -5.178009,-0.173981 -11.112,-0.173981h-32.261993v44.52298l0,0zm-54.641998,-12.276001l-18.109009,-32.246979h-3.113007l-18.370987,32.246979h39.593002l0,0z" fill="#FFFFFF"/>
  </g>
  <g id="Layer_3">
   <polygon id="svg_2" points="115.28399658203125,53.384002685546875 103.8070068359375,64.86199951171875 65.09599304199219,103.57199096679688 53.61799621582031,92.093994140625 37.86399841308594,76.33999633789062 26.386001586914062,87.8179931640625 65.09599304199219,126.52801513671875 126.76199340820312,64.86199951171875 " fill="#FFFFFF" clip-rule="evenodd" fill-rule="evenodd"/>
  </g>
  <g id="Layer_4">
   <rect id="svg_3" height="22.28" width="22.28" fill="#FFFFFF" clip-rule="evenodd" fill-rule="evenodd" transform="matrix(-0.7071,-0.7071,0.7071,-0.7071,10.4679,598.0604) " y="404.517078" x="327.261614"/>
  </g>
  <g id="Layer_5">
   <polygon id="svg_4" points="65.09599304199219,26.152008056640625 92.3280029296875,53.384002685546875 103.8070068359375,41.906005859375 65.09599304199219,3.1959991455078125 3.4300003051757812,64.86199951171875 14.907997131347656,76.33999633789062 26.386001586914062,64.86199951171875 45.066001892089844,46.1820068359375 " fill="#FFFFFF" clip-rule="evenodd" fill-rule="evenodd"/>
  </g>
 </g>
</svg>